<?xml version="1.0" standalone="no"?><!DOCTYPE svg PUBLIC "-//W3C//DTD SVG 1.1//EN" "http://www.w3.org/Graphics/SVG/1.1/DTD/svg11.dtd"><svg t="1589094290159" class="icon" viewBox="0 0 1024 1024" version="1.1" xmlns="http://www.w3.org/2000/svg" p-id="3575" width="48" height="48" xmlns:xlink="http://www.w3.org/1999/xlink"><defs><style type="text/css"></style></defs><path d="M185.563429 115.931429h180.224c37.302857 0 67.437714 28.672 67.437714 64.365714v192.365714c0 35.547429-30.208 64.365714-67.437714 64.365714H185.563429c-37.302857 0-67.437714-28.672-67.437715-64.365714v-192.365714c0-35.547429 30.208-64.365714 67.437715-64.365714zM73.142857 372.662857c0 59.245714 50.322286 107.227429 112.420572 107.227429h180.224c62.171429 0 112.420571-48.054857 112.420571-107.227429v-192.365714C478.208 121.051429 427.958857 73.142857 365.787429 73.142857H185.563429C123.465143 73.142857 73.142857 121.124571 73.142857 180.297143v192.365714z m585.069714-256.731428h180.150858c37.302857 0 67.437714 28.672 67.437714 64.365714v192.365714c0 35.547429-30.134857 64.365714-67.437714 64.365714H658.285714c-37.302857 0-67.437714-28.672-67.437714-64.365714v-192.365714c0-35.547429 30.134857-64.365714 67.437714-64.365714z m-112.420571 256.731428c0 59.245714 50.249143 107.227429 112.420571 107.227429h180.150858c62.171429 0 112.493714-48.054857 112.493714-107.227429v-192.365714C950.857143 121.051429 900.534857 73.142857 838.363429 73.142857H658.285714c-62.171429 0-112.420571 47.981714-112.420571 107.154286v192.365714z m-360.228571 214.308572h180.224c37.302857 0 67.437714 28.672 67.437714 64.365714v192.292571c0 35.547429-30.208 64.365714-67.437714 64.365715H185.563429c-37.302857 0-67.437714-28.745143-67.437715-64.365715v-192.365714c0-35.547429 30.208-64.365714 67.437715-64.365714zM73.142857 843.556571C73.142857 902.875429 123.465143 950.857143 185.563429 950.857143h180.224c62.171429 0 112.420571-47.981714 112.420571-107.227429v-192.365714c0-59.245714-50.249143-107.154286-112.420571-107.154286H185.563429C123.465143 544.182857 73.142857 592.164571 73.142857 651.264v192.365714z m763.245714 64.365715H658.139429c-37.302857 0-67.291429-28.745143-67.291429-64.365715v-192.365714c0-35.547429 30.061714-64.365714 67.291429-64.365714h180.224c37.302857 0 67.437714 28.745143 67.437714 64.365714V843.702857a21.942857 21.942857 0 0 0 22.528 21.357714 21.942857 21.942857 0 0 0 22.528-21.357714V651.264c0-59.245714-50.322286-107.154286-112.493714-107.154286H658.285714c-62.171429 0-112.420571 48.054857-112.420571 107.154286v192.365714c0 59.245714 50.176 107.227429 112.347428 107.227429h179.712c12.946286 0 23.04-9.581714 23.04-21.430857a21.942857 21.942857 0 0 0-22.528-21.430857h-1.974857z" fill="#d81e06" p-id="3576"></path></svg>