<?xml version="1.0" standalone="no"?><!DOCTYPE svg PUBLIC "-//W3C//DTD SVG 1.1//EN" "http://www.w3.org/Graphics/SVG/1.1/DTD/svg11.dtd"><svg t="1589094843650" class="icon" viewBox="0 0 1024 1024" version="1.1" xmlns="http://www.w3.org/2000/svg" p-id="5912" xmlns:xlink="http://www.w3.org/1999/xlink" width="48" height="48"><defs><style type="text/css"></style></defs><path d="M260.448824 992.899678c-2.176572 0-4.281513-0.969071-5.698792-2.706645-1.821485-2.233877-2.169409-5.326309-0.890276-7.910157 1.162476-2.347464 2.307555-6.072299 1.164522-10.484795-1.007957-3.88754-3.450589-7.132444-6.877641-9.134031-3.360538-1.962701-7.275707-2.492774-11.028171-1.496074l-6.589069 1.7519c-1.890047 0.502443-3.900843 0.231267-5.589298-0.75213s-2.917446-2.599198-3.412726-4.490268l-7.526417-28.728298c-1.026376-3.918239 1.308809-7.928576 5.222955-8.969279l6.665817-1.772366c7.865131-2.091638 12.580526-10.29139 10.510378-18.281365-1.007957-3.88754-3.450589-7.131421-6.878664-9.134031-3.359514-1.961678-7.274684-2.491751-11.027148-1.496074l-6.78145 1.803066c-1.889023 0.503467-3.900843 0.231267-5.589298-0.75213-1.689479-0.983397-2.917446-2.599198-3.412726-4.490268l-7.526417-28.727275c-1.026376-3.918239 1.308809-7.928576 5.222955-8.969279l6.856152-1.823532c7.865131-2.091638 12.580526-10.292414 10.510378-18.281365-1.007957-3.88754-3.449565-7.131421-6.877641-9.134031-3.359514-1.961678-7.27673-2.492774-11.029194-1.497097l-6.971785 1.853208c-1.889023 0.502443-3.900843 0.231267-5.589298-0.75213-1.689479-0.983397-2.917446-2.600221-3.412726-4.490268l-7.526417-28.727275c-1.026376-3.918239 1.308809-7.928576 5.223978-8.969279l7.048533-1.873674c7.865131-2.091638 12.579503-10.292414 10.509355-18.281365-1.007957-3.888564-3.450589-7.132444-6.878664-9.135054-3.358491-1.961678-7.274684-2.491751-11.027148-1.49505l-7.164167 1.904373c-1.89107 0.502443-3.901867 0.230244-5.589298-0.75213-1.688455-0.983397-2.917446-2.599198-3.412726-4.490268l-7.526417-28.728298c-1.026376-3.918239 1.309832-7.928576 5.223978-8.969279l7.238868-1.924839c7.865131-2.091638 12.579503-10.292414 10.510378-18.281365-1.007957-3.88754-3.450589-7.132444-6.877641-9.134031-3.359514-1.961678-7.275707-2.491751-11.029194-1.496074l-7.353478 1.955538c-1.889023 0.503467-3.89982 0.231267-5.589298-0.75213-1.688455-0.983397-2.916423-2.599198-3.412726-4.490268l-7.526417-28.728298c-1.026376-3.918239 1.309832-7.928576 5.223978-8.969279l7.430226-1.974981c7.865131-2.091638 12.579503-10.292414 10.509355-18.281365-1.007957-3.88754-3.449565-7.132444-6.877641-9.134031-3.358491-1.962701-7.274684-2.492774-11.027148-1.496074l-7.544837 2.006703c-1.888 0.503467-3.89982 0.231267-5.590322-0.75213-1.689479-0.983397-2.917446-2.599198-3.412726-4.490268l-7.526417-28.729322c-1.026376-3.918239 1.309832-7.928576 5.223978-8.969279l7.621585-2.026146c7.865131-2.091638 12.579503-10.292414 10.509355-18.281365-0.719384-2.777253-2.228761-5.28026-4.364401-7.238868-1.982144-1.818415-2.814092-4.574179-2.167363-7.184633 0.645706-2.610454 2.665713-4.660136 5.26798-5.344728l498.018567-130.97296c3.922333-1.034563 7.948019 1.312902 8.980535 5.240351 1.033539 3.927449-1.313925 7.948019-5.241374 8.981559L155.934468 532.342304c0.644683 1.459235 1.173732 2.976798 1.577938 4.535293 4.092201 15.787568-5.314029 32.019251-20.966521 36.182061l-0.542352 0.144286 3.799536 14.503319 0.412392-0.109494c7.564279-2.01182 15.459087-0.943488 22.224164 3.009544 6.834662 3.991917 11.698436 10.435677 13.69593 18.143219 4.092201 15.789615-5.314029 32.019251-20.966521 36.182061l-0.350994 0.093121 3.799536 14.503319 0.222057-0.059352c7.565303-2.012843 15.458063-0.943488 22.224164 3.009544 6.834662 3.991917 11.698436 10.435677 13.694907 18.143219 4.092201 15.788591-5.314029 32.019251-20.966521 36.182061l-0.158612 0.042979 3.799536 14.503319 0.031722-0.008186c7.563256-2.012843 15.45704-0.943488 22.223141 3.00852 6.835685 3.991917 11.69946 10.4367 13.696953 18.144242 4.089132 15.778358-5.301749 31.998785-20.934798 36.173874l3.799536 14.502295c7.518231-1.951445 15.346523-0.86981 22.064528 3.053546 6.834662 3.992941 11.698436 10.435677 13.69593 18.143219 4.071735 15.71389-5.225001 31.865755-20.74344 36.121685l3.800559 14.505365c7.455809-1.883907 15.2094-0.789992 21.872147 3.101641 6.834662 3.991917 11.69946 10.435677 13.69593 18.143219 4.056386 15.650445-5.148253 31.734772-20.553105 36.069497l3.801583 14.511505c7.399527-1.820462 15.075347-0.709151 21.679765 3.148713 6.834662 3.992941 11.698436 10.435677 13.69593 18.143219 0.618077 2.38328 0.926092 4.826935 0.930185 7.272637l725.82904-190.885492c-0.554632-1.306762-1.01205-2.651386-1.36816-4.025687-3.363607-12.980639 2.337231-26.222221 13.297864-32.844036l-4.447289-16.97358c-12.748349-0.37453-24.11728-9.093099-27.474748-22.053272-3.331885-12.859889 2.296299-26.055422 13.124925-32.721239l-4.485151-17.119913c-12.655228-0.478907-23.938202-9.194406-27.26497-22.031782-3.301186-12.740162 2.25332-25.8876 12.954033-32.597419l-4.523013-17.266245c-12.56313-0.579191-23.759123-9.290597-27.055193-22.007223-3.270487-12.620435 2.211365-25.722848 12.781094-32.474622l-4.561899-17.410532c-12.470009-0.680499-23.577998-9.386788-26.844392-21.986757-3.239787-12.504802 2.168386-25.560142 12.609179-32.351825l-4.598738-17.554818c-12.375865-0.778736-23.397896-9.480932-26.634614-21.965268-3.27151-12.627598 1.962701-25.461905 12.428054-32.264844l-4.620227-17.628496c-12.401448-0.776689-23.165606-9.373485-26.433022-21.979594-0.668219-2.577708-0.979304-5.209652-0.942465-7.831362l-58.430784 15.365966c-3.922333 1.032516-7.948019-1.312902-8.980535-5.240351-1.033539-3.927449 1.313925-7.948019 5.241374-8.981559l70.347185-18.500353c2.825348-0.741897 5.828752 0.257873 7.641027 2.554172 1.812275 2.295276 2.091638 5.447059 0.712221 8.024767-1.817392 3.396353-2.297322 7.274684-1.351787 10.9197 1.925862 7.433296 9.048073 12.072967 16.576537 10.804067 3.748371-0.635473 7.373944 1.701758 8.338922 5.386684l7.628748 29.115108c0.961908 3.674693-1.032516 7.478322-4.603855 8.774851-7.257288 2.635013-11.261485 10.283204-9.31618 17.791202 1.944282 7.499811 9.119705 12.136412 16.70752 10.783601 3.774977-0.674359 7.433296 1.665942 8.405437 5.375427l7.617491 29.077246c0.969071 3.699252-1.060145 7.52437-4.665253 8.797363-7.225565 2.550079-11.372002 10.385535-9.441023 17.838274 1.929955 7.447623 9.31925 12.177344 16.838503 10.765181 3.799536-0.711198 7.492648 1.629103 8.470929 5.363148l7.607258 29.037337c0.975211 3.724835-1.086751 7.570419-4.728698 8.818853-7.312546 2.506077-11.513218 10.363022-9.56382 17.887392 1.948375 7.519254 9.399067 12.239765 16.969487 10.745738 3.806699-0.750083 7.550976 1.590218 8.53642 5.349845l7.597025 28.998451c0.981351 3.749394-1.11438 7.617491-4.79112 8.840342-7.401574 2.462075-11.655458 10.339486-9.68764 17.936511 1.966795 7.592932 9.473769 12.299117 17.10047 10.729365 3.824095-0.793062 7.609305 1.554402 8.600889 5.336542l7.586792 28.959565c0.988514 3.773953-1.14201 7.66354-4.855588 8.860808-7.487531 2.416026-11.795651 10.316973-9.80839 17.986653 1.985214 7.667633 9.562796 12.370749 17.229406 10.709923 3.851725-0.826831 7.670703 1.514493 8.668427 5.323239l7.576559 28.921703c0.994654 3.799536-1.170662 7.709589-4.919033 8.881274-7.575536 2.367931-11.938913 10.290367-9.931187 18.035772 0.679475 2.619664 2.055822 4.950755 4.092201 6.925736 1.90335 1.847068 2.664689 4.577249 1.991354 7.143701-0.673335 2.566452-2.675946 4.570085-5.242398 5.245468L262.319427 992.657154C261.700327 992.820883 261.072017 992.899678 260.448824 992.899678zM687.527712 392.290571c-3.25923 0-6.238075-2.183735-7.105838-5.484921-1.033539-3.927449 1.313925-7.948019 5.241374-8.980535l93.393064-24.560372c3.922333-1.031493 7.948019 1.313925 8.980535 5.241374 1.033539 3.927449-1.313925 7.948019-5.241374 8.980535l-93.393064 24.560372C688.777169 392.211776 688.147836 392.290571 687.527712 392.290571z" p-id="5913" fill="#8a8a8a"></path><path d="M571.575864 809.671587c-26.425859 0.001023-52.485375-7.009647-75.90783-20.718881-34.819017-20.379143-59.634192-53.123918-69.871347-92.200912-11.744485-44.830021-2.577708-91.859128 25.148773-129.024585 2.430352-3.254114 7.036253-3.924379 10.290367-1.497097 3.255137 2.428306 3.925403 7.036253 1.497097 10.290367-25.037233 33.561373-33.314757 76.025511-22.710234 116.504434 9.242502 35.279504 31.642674 64.840774 63.074547 83.236749 31.42778 18.393929 68.12354 23.424502 103.32732 14.167674 72.683393-19.114336 116.29261-93.916996 97.212042-166.745698-16.820084-64.206324-76.885088-106.882286-142.776797-101.459786-4.036943 0.329505-7.598049-2.677992-7.9296-6.726192-0.332575-4.047176 2.679016-7.598049 6.726192-7.9296 73.049736-5.997598 139.574872 41.266869 158.206208 112.388696 21.132296 80.666204-27.181059 163.519214-107.698884 184.694489C597.391832 808.009737 584.437799 809.671587 571.575864 809.671587zM483.068064 552.533159c-2.175549 0-4.328585-0.960885-5.779633-2.801812-2.51324-3.189645-1.965771-7.812943 1.223874-10.327206 13.480013-10.623965 28.589129-18.808368 44.905746-24.325012 3.848655-1.299599 8.020674 0.763386 9.320273 4.611018 1.300622 3.847631-0.76441 8.020674-4.611018 9.320273-14.724353 4.977361-28.353768 12.360516-40.513716 21.943778C486.265896 552.017412 484.661352 552.533159 483.068064 552.533159z" p-id="5914" fill="#8a8a8a"></path><path d="M485.454414 661.239999l48.288796-14.973016c2.769067-7.549953 4.752234-15.283078 5.947456-23.198352l-53.116755 16.470113-3.511987-11.322883 58.111512-18.018376c0.839111-11.818163 0.644683-24.413016-0.581238-37.783535l14.199397-1.300622c0.547469 12.365632 0.615007 23.963785 0.203638 34.798551l74.096579-22.976294 3.510964 11.322883-78.42721 24.317848c-0.89744 7.701402-2.491751 15.313777-4.782933 22.837124l97.743138-30.306236 3.510964 11.322883-45.291532 14.042831c16.162098 9.347902 34.573423 13.007245 55.240115 10.980076-1.870604 4.960988-3.613294 10.124592-5.234211 15.494902-10.544147-0.257873-20.49273-1.736551-29.847795-4.433986 2.541893 13.69286 4.761444 26.145473 6.656607 37.359886 2.38328 15.930831-3.879354 26.14752-18.788925 30.649044-4.88424 1.514493-14.021342 4.224208-27.41028 8.134261-2.156106-4.199649-4.731768-8.389064-7.730055-12.570293 10.119475-2.285043 19.232017-4.684696 27.335578-7.197936 9.769504-3.028986 14.07967-8.746198 12.935614-17.152658-0.929162-6.5246-2.488681-15.47239-4.673439-26.842345l-49.621141 15.386432c2.50403 15.529695 1.52268 28.063149-2.943029 37.59934-4.710278 10.707876-15.960507 22.106484-33.750685 34.19173-4.14439-3.947915-7.843642-7.240915-11.095709-9.883091 16.870226-10.341532 27.486004-20.446681 31.848359-30.316469 3.505847-7.534604 4.432962-16.706497 2.785439-27.511587l-22.977317 7.124258-2.685155-8.658194c-5.376451 7.386224-11.408841 14.611789-18.101263 21.675672-3.501754-3.052522-7.43125-5.910617-11.785417-8.575306 13.763468-12.905938 24.400736-26.669406 31.914874-41.289382l-38.464033 11.92561L485.454414 661.239999zM488.128313 599.815021l7.116071-10.601452c10.298554 4.959965 19.696598 9.953699 28.191062 14.986319l-7.919367 12.130272C506.959194 610.709139 497.830279 605.203752 488.128313 599.815021zM527.905248 685.130106l91.580788-28.396747c-10.365068-3.598968-20.013823-8.820899-28.948309-15.663748l-46.290279 14.352893C540.099988 665.591097 534.651906 675.494655 527.905248 685.130106zM581.27169 588.821643c5.063319-9.965979 9.061376-20.027126 11.996219-30.185486l13.709233 3.597945c-3.712555 10.399861-8.175193 20.727067-13.390985 30.983665L581.27169 588.821643z" p-id="5915" fill="#8a8a8a"></path><path d="M369.924167 162.112168c1.421372 0 2.850931-0.484024 4.021593-1.474584l62.473867-52.859905c2.626827-2.222621 2.955308-6.154163 0.731664-8.782014-2.222621-2.626827-6.15314-2.954285-8.782014-0.731664l-62.473867 52.859905c-2.626827 2.222621-2.955308 6.154163-0.731664 8.782014C366.396831 161.362085 368.154871 162.112168 369.924167 162.112168z" p-id="5916" fill="#8a8a8a"></path><path d="M291.873534 315.302129c-10.468422 10.172687-19.039635 21.945825-25.473161 34.989909-1.521656 3.086291-0.25378 6.822382 2.831488 8.345062 0.887206 0.436952 1.826602 0.64366 2.75167 0.64366 2.297322 0 4.507664-1.276063 5.592368-3.476171 5.803169-11.765975 13.535271-22.385846 22.982434-31.565926 2.468215-2.39863 2.524496-6.342452 0.125867-8.81169C298.286594 312.959781 294.341748 312.903499 291.873534 315.302129z" p-id="5917" fill="#8a8a8a"></path><path d="M374.052185 349.468277c0.24764-9.748015-0.107447-19.274996-1.061169-28.584012l-11.79872 2.25025c1.461281 8.841366 2.074242 17.994839 1.836835 27.465538L374.052185 349.468277z" p-id="5918" fill="#8a8a8a"></path><path d="M295.795866 392.990512c9.386788 0.582261 18.377556 1.462305 26.973328 2.639107l1.632173-12.167111c-8.332782-0.750083-17.342993-1.140986-27.030633-1.176802L295.795866 392.990512z" p-id="5919" fill="#8a8a8a"></path><path d="M309.09987 423.941432l34.619472-31.977295c1.973958 6.490831 3.27765 13.129019 3.914146 19.914562l-31.472805 29.070082 6.816243 7.380084 25.069979-23.155373c-0.202615 6.832615-1.060145 13.782911-2.564405 20.847817l12.003382-3.192715c1.528819-9.512654 2.043542-18.774599 1.521656-27.779693l30.170137-27.866674c9.331529 1.973958 18.615986 2.447748 27.857465 1.419326l-58.368362 53.91391 29.119201-7.746428c-0.710175-1.12359-1.452071-2.25639-2.24411-3.402493l32.340569-29.872355c5.819542 7.898901 10.277064 14.173814 13.368472 18.825764 0.553609 0.844228 0.994654 1.687432 1.344624 2.52859l11.623735-3.092431c-0.804319-1.911536-1.860371-3.857864-3.200902-5.845125-5.541203-7.886621-11.782348-16.601096-18.72241-26.14752 8.139378-1.349741 16.287965-3.848655 24.447808-7.497765-0.719384-4.699022-1.269923-9.284457-1.64957-13.761422-15.068184 9.091052-30.485315 13.009292-46.258557 11.754718l29.519314-27.265994-6.816243-7.380084-63.705927 58.842153c-0.992607-6.589069-2.550079-12.994965-4.673439-19.212574l51.115168-47.214325-6.816243-7.380084-48.292889 44.607964c-3.637854-8.438183-7.921413-17.284665-12.851703-26.542516l-10.386558 6.175653c5.815449 9.779737 10.559497 19.342534 14.230096 28.688389l-37.874609 34.983769L309.09987 423.941432z" p-id="5920" fill="#8a8a8a"></path><path d="M463.669248 84.721567l39.086204-33.072233c0.928139 2.020006 2.12643 3.919263 3.579525 5.647627 7.097652 8.450463 18.466584 11.097756 28.236088 7.167237l9.963932 11.799744c-5.52176 9.021467-4.843308 20.747533 2.2656 29.212322 7.031137 8.368598 18.634406 11.000542 28.386514 7.083326l9.921977 11.749602c-5.508457 9.004071-4.881171 20.962427 2.160199 29.345352 7.095605 8.446369 18.770506 11.053754 28.554336 7.023974l9.840112 11.652388c-5.622044 9.021467-5.033643 21.043269 2.073218 29.502941 7.160073 8.525164 18.902512 11.102872 28.722158 6.963599l9.759271 11.556197c-5.736655 9.035794-5.187139 21.118993 1.985214 29.66053 7.226588 8.603959 19.035542 11.154038 28.892027 6.903224l9.677407 11.458983c-5.851265 9.05012-5.342682 21.195741 1.898233 29.816073 7.296173 8.686846 19.174712 11.206226 29.061896 6.844895l9.594519 11.359722c-4.560876 6.92676-5.346775 15.686261-2.209318 23.317055l12.246929-3.258207c-2.873444-5.028527-2.025123-11.474332 2.333138-15.519462 2.440585-2.263553 2.669806-6.045693 0.522909-8.587586l-16.347317-19.35686c-2.153036-2.551102-5.934153-2.949168-8.571213-0.909719-5.265934 4.071735-12.771885 3.232624-17.08819-1.905396-4.318352-5.14109-3.903913-12.755512 0.942465-17.33583 2.402723-2.270716 2.613524-6.02318 0.480954-8.549723l-16.369829-19.382443c-2.139733-2.532683-5.887081-2.946099-8.527211-0.944512-5.251607 3.984754-12.717649 3.122107-16.994046-1.966795-4.276397-5.091972-3.895727-12.670577 0.865717-17.253966 2.365884-2.27788 2.558265-6.000668 0.440022-8.509814l-16.391319-19.409049c-2.124384-2.515287-5.840008-2.942005-8.481162-0.978281-5.246491 3.903913-12.667507 3.009544-16.900925-2.028193-4.236488-5.042853-3.889587-12.585643 0.789992-17.171078 2.330068-2.282996 2.503007-5.978155 0.399089-8.470929l-16.412808-19.434631c-2.109034-2.499937-5.796006-2.938935-8.435113-1.01205-5.232165 3.818979-12.614296 2.902096-16.807804-2.090615-4.196579-4.996804-3.883447-12.501732 0.712221-17.08819 2.294252-2.289136 2.450818-5.954619 0.35918-8.43102l-16.434298-19.462261c-2.096754-2.482541-5.750981-2.936889-8.390088-1.044796-5.305843 3.799536-12.490475 2.876514-16.715707-2.153036-4.226255-5.031597-3.953032-12.344143 0.636496-17.007349 2.258437-2.294252 2.396583-5.931083 0.320295-8.391111L540.841885 52.575426c-2.083451-2.467191-5.704932-2.933819-8.343015-1.077541-5.294586 3.719718-12.438287 2.765997-16.622586-2.216481-2.052752-2.442632-3.100618-5.585205-2.950192-8.847505 0.113587-2.475378-1.249457-4.782933-3.474125-5.876847-2.223644-1.093914-4.882194-0.766456-6.776334 0.833995l-47.057759 39.816844c-2.626827 2.222621-2.955308 6.154163-0.731664 8.782014C457.110879 86.617753 461.042421 86.945211 463.669248 84.721567z" p-id="5921" fill="#8a8a8a"></path><path d="M107.296725 606.02956c-0.384763 0.291642-0.765433 0.590448-1.13587 0.905626l-0.021489 0.01842-8.197706-9.706059 0.106424-0.091074c2.491751-2.119267 4.455475-4.6366 5.89015-7.380084l-6.467295-31.30703c-3.880377-3.165086-8.601912-5.090948-13.680581-5.516644-6.618744-0.563842-13.045107 1.506307-18.098193 5.805216l-0.148379 0.125867-8.196683-9.706059 0.234337-0.198521c10.454096-8.894577 11.726066-24.740474 2.836605-35.32453-4.339842-5.166673-10.411117-8.320503-17.095353-8.880251-6.621814-0.557702-13.045107 1.50733-18.098193 5.806239l-0.275269 0.234337-8.197706-9.707083 0.36225-0.308015c10.455119-8.894577 11.727089-24.740474 2.836605-35.323507-0.87902-1.045819-1.835811-2.012843-2.862187-2.89391l326.33337-276.115642c2.626827-2.222621 2.955308-6.154163 0.731664-8.782014-2.222621-2.62785-6.155187-2.955308-8.782014-0.731664L2.227738 458.830033c-1.739621 1.472538-2.536776 3.777023-2.079358 6.009877 0.458441 2.232854 2.098801 4.036943 4.278443 4.704139 2.348488 0.719384 4.41659 2.083451 5.980201 3.944845 4.498454 5.354961 3.883447 13.348006-1.369184 17.816784l-5.089925 4.330632c-2.614547 2.223644-2.937912 6.14393-0.723477 8.765641l16.238846 19.227923c1.068332 1.26583 2.597151 2.053776 4.247744 2.189875 1.648546 0.13917 3.287883-0.38988 4.549619-1.464351l5.03876-4.287653c2.5071-2.131547 5.697769-3.15076 8.981559-2.87856 3.352351 0.280386 6.40385 1.870604 8.593725 4.476965 4.498454 5.354961 3.88447 13.348006-1.369184 17.817808l-4.963035 4.222161c-2.614547 2.223644-2.937912 6.14393-0.722454 8.766664l16.237823 19.2269c1.068332 1.26583 2.597151 2.054799 4.247744 2.190899 1.655709 0.127913 3.288906-0.391926 4.550643-1.464351l4.910846-4.179183c2.506077-2.130524 5.694699-3.15383 8.981559-2.87856 3.352351 0.281409 6.40385 1.871627 8.592702 4.477988 4.498454 5.355985 3.88447 13.348006-1.370207 17.816784l-4.835122 4.114714c-2.613524 2.223644-2.936889 6.14393-0.722454 8.766664l16.237823 19.2269c1.068332 1.264806 2.597151 2.052752 4.247744 2.189875 1.654686 0.124843 3.287883-0.391926 4.549619-1.463328l0.710175-0.603751L107.296725 606.02956z" p-id="5922" fill="#8a8a8a"></path><path d="M323.118142 307.10647c48.438199-28.189016 109.934808-17.45965 146.225339 25.51307 17.994839 21.308305 26.963095 47.2747 27.298739 73.191976l12.375865-3.291976c-1.026376-27.66099-10.94733-55.197136-30.153764-77.940117-40.199561-47.603181-108.336404-59.481719-162.013931-28.244274-2.974751 1.731434-3.982708 5.545296-2.251274 8.520047C316.329529 307.829947 320.144414 308.834834 323.118142 307.10647z" p-id="5923" fill="#8a8a8a"></path><path d="M280.233426 463.378629c-13.285584-23.796986-17.790178-51.581796-12.361539-78.94091 0.669242-3.374864-1.523703-6.65456-4.89959-7.324826-3.378957-0.671289-6.65456 1.523703-7.324826 4.89959-5.803169 29.246091-1.351787 58.931181 12.19781 84.661192L280.233426 463.378629z" p-id="5924" fill="#8a8a8a"></path></svg>